<svg width="153" height="32" viewBox="0 0 153 32" fill="none" xmlns="http://www.w3.org/2000/svg">
<path d="M26.3946 22C24.3198 25.5868 20.4417 28 16 28C9.37258 28 4 22.6274 4 16C4 9.37258 9.37258 4 16 4C22.6274 4 28 9.37258 28 16H32C32 7.16344 24.8366 0 16 0C7.16344 0 0 7.16344 0 16C0 24.8366 7.16344 32 16 32C22.7148 32 28.4634 27.8637 30.837 22H26.3946Z" fill="#043B56"/>
<path d="M42.7221 21.1034C39.1267 17.0932 32.0742 19.444 28.7554 19.7206C23.7772 19.9971 21.1498 18.6143 19.3521 17.9229C20.3189 19.4623 22.8092 22.5751 26.9577 23.316C30.8296 24.0074 36.9141 20.5503 42.7221 21.1034Z" fill="#3AB75D"/>
<path d="M17.2778 13.4978C20.0435 14.7424 20.8732 15.4338 25.0217 15.4338C27.7909 15.4338 34.1485 13.7744 36.9141 17.0932C29.9999 16.4018 29.5851 17.9229 25.4366 17.9229C20.3201 17.7846 18.5224 15.0189 17.2778 13.4978Z" fill="#3AB75D"/>
<path d="M49.7014 18.664H47.8614V23H46.2134V11.8H50.1334C51.04 11.8 51.7867 11.9707 52.3734 12.312C52.96 12.6427 53.3867 13.0693 53.6534 13.592C53.92 14.1147 54.0534 14.6693 54.0534 15.256C54.0534 16.024 53.8347 16.712 53.3974 17.32C52.96 17.928 52.288 18.3333 51.3814 18.536L54.1974 23H52.4054L49.7014 18.664ZM47.8614 17.272H49.9094C50.624 17.272 51.2267 17.1227 51.7174 16.824C52.208 16.5147 52.4534 15.992 52.4534 15.256C52.4534 14.5307 52.208 14.0187 51.7174 13.72C51.2267 13.4213 50.624 13.272 49.9094 13.272H47.8614V17.272ZM59.5485 23.112C58.6738 23.112 57.9378 22.904 57.3405 22.488C56.7432 22.072 56.3005 21.5333 56.0125 20.872C55.7245 20.2 55.5805 19.4853 55.5805 18.728C55.5805 17.9707 55.7245 17.2613 56.0125 16.6C56.3005 15.928 56.7432 15.384 57.3405 14.968C57.9485 14.552 58.6898 14.344 59.5645 14.344C60.7165 14.344 61.6338 14.7227 62.3165 15.48C62.9992 16.2267 63.3405 17.3147 63.3405 18.744V19.208H57.1965V19.32C57.1965 19.7467 57.2925 20.1467 57.4845 20.52C57.6765 20.8933 57.9485 21.1973 58.3005 21.432C58.6525 21.656 59.0578 21.768 59.5165 21.768C60.0178 21.768 60.4498 21.6453 60.8125 21.4C61.1752 21.144 61.4365 20.8027 61.5965 20.376H63.2285C63.0152 21.1653 62.5938 21.8213 61.9645 22.344C61.3352 22.856 60.5298 23.112 59.5485 23.112ZM61.7245 18.072C61.6818 17.208 61.4632 16.584 61.0685 16.2C60.6845 15.8053 60.1725 15.608 59.5325 15.608C58.8498 15.608 58.3005 15.832 57.8845 16.28C57.4792 16.728 57.2658 17.3253 57.2445 18.072H61.7245ZM68.3174 23.112C67.592 23.112 66.968 22.9253 66.4454 22.552C65.9227 22.1787 65.5227 21.6613 65.2454 21C64.9787 20.3387 64.8454 19.5867 64.8454 18.744C64.8454 17.8907 64.9787 17.1333 65.2454 16.472C65.5227 15.8107 65.9227 15.2933 66.4454 14.92C66.9787 14.536 67.6134 14.344 68.3494 14.344C69.0854 14.344 69.672 14.5147 70.1094 14.856C70.5467 15.1973 70.8774 15.592 71.1014 16.04H71.2134V11H72.8934V23H71.2134V21.368H71.1014C70.8667 21.8373 70.5254 22.248 70.0774 22.6C69.6294 22.9413 69.0427 23.112 68.3174 23.112ZM68.8614 21.736C69.6187 21.736 70.1947 21.448 70.5894 20.872C70.9947 20.296 71.1974 19.5867 71.1974 18.744C71.1974 17.9013 70.9947 17.192 70.5894 16.616C70.1947 16.04 69.6187 15.752 68.8614 15.752C68.0827 15.752 67.5014 16.04 67.1174 16.616C66.7334 17.1813 66.5414 17.8853 66.5414 18.728C66.5414 19.5813 66.7334 20.296 67.1174 20.872C67.512 21.448 68.0934 21.736 68.8614 21.736ZM78.0484 23.112C77.355 23.112 76.7577 22.9787 76.2564 22.712C75.755 22.4453 75.371 22.0987 75.1044 21.672C74.8377 21.2347 74.7044 20.7813 74.7044 20.312V20.232H76.3364V20.296C76.3364 20.68 76.491 21.0267 76.8004 21.336C77.1097 21.6347 77.5417 21.784 78.0964 21.784C78.555 21.784 78.9337 21.672 79.2324 21.448C79.531 21.224 79.6804 20.92 79.6804 20.536C79.6804 20.2053 79.563 19.9493 79.3284 19.768C79.0937 19.576 78.795 19.448 78.4324 19.384L77.3764 19.224C76.6937 19.1173 76.1124 18.8773 75.6324 18.504C75.1524 18.12 74.9124 17.5653 74.9124 16.84C74.9124 16.0507 75.195 15.4373 75.7604 15C76.3257 14.5627 77.0564 14.344 77.9524 14.344C78.603 14.344 79.1684 14.4667 79.6484 14.712C80.1284 14.9467 80.491 15.2613 80.7364 15.656C80.9817 16.0507 81.1044 16.4773 81.1044 16.936V17H79.4724V16.968C79.4724 16.648 79.3444 16.3387 79.0884 16.04C78.8324 15.7413 78.4377 15.592 77.9044 15.592C77.4564 15.592 77.0937 15.704 76.8164 15.928C76.539 16.152 76.4004 16.4453 76.4004 16.808C76.4004 17.1173 76.5177 17.368 76.7524 17.56C76.987 17.752 77.2804 17.8747 77.6324 17.928L78.7844 18.136C79.4884 18.264 80.075 18.5147 80.5444 18.888C81.0244 19.2613 81.2644 19.8053 81.2644 20.52C81.2644 21.032 81.1257 21.4853 80.8484 21.88C80.571 22.2747 80.187 22.5787 79.6964 22.792C79.2057 23.0053 78.6564 23.112 78.0484 23.112ZM85.5703 15.88V20.392C85.5703 20.7867 85.5863 21.0747 85.6183 21.256C85.6609 21.4373 85.7623 21.5813 85.9223 21.688C86.0929 21.7947 86.3703 21.848 86.7543 21.848C87.0209 21.848 87.2823 21.816 87.5383 21.752V22.92C87.4636 22.952 87.2876 22.984 87.0103 23.016C86.7329 23.048 86.4556 23.064 86.1783 23.064C85.5063 23.064 85.0049 22.968 84.6743 22.776C84.3436 22.5733 84.1303 22.3173 84.0343 22.008C83.9489 21.688 83.9062 21.272 83.9062 20.76L83.9223 15.88H82.4023V14.568H83.9223V11.8H85.5703V14.568H87.5383V15.88H85.5703ZM93.0798 23.112C92.2158 23.112 91.4851 22.9093 90.8878 22.504C90.2904 22.0987 89.8424 21.5653 89.5438 20.904C89.2558 20.232 89.1118 19.512 89.1118 18.744C89.1118 17.9653 89.2558 17.2453 89.5438 16.584C89.8424 15.912 90.2904 15.3733 90.8878 14.968C91.4851 14.552 92.2158 14.344 93.0798 14.344C93.9438 14.344 94.6744 14.552 95.2718 14.968C95.8691 15.3733 96.3171 15.912 96.6158 16.584C96.9144 17.2453 97.0638 17.96 97.0638 18.728C97.0638 19.496 96.9144 20.216 96.6158 20.888C96.3171 21.5493 95.8691 22.088 95.2718 22.504C94.6744 22.9093 93.9438 23.112 93.0798 23.112ZM93.0798 21.736C93.8158 21.736 94.3864 21.448 94.7918 20.872C95.2078 20.296 95.4158 19.576 95.4158 18.712C95.4158 17.848 95.2078 17.1333 94.7918 16.568C94.3864 16.0027 93.8158 15.72 93.0798 15.72C92.3544 15.72 91.7838 16.008 91.3678 16.584C90.9518 17.1493 90.7438 17.8587 90.7438 18.712C90.7438 19.576 90.9464 20.296 91.3518 20.872C91.7678 21.448 92.3438 21.736 93.0798 21.736ZM98.9165 14.568H100.581V16.008H100.709C100.911 15.5387 101.242 15.144 101.701 14.824C102.159 14.504 102.725 14.344 103.397 14.344C104.122 14.344 104.719 14.52 105.189 14.872C105.658 15.2133 105.999 15.656 106.213 16.2C106.426 16.7333 106.533 17.304 106.533 17.912V23H104.885V18.152C104.885 17.384 104.687 16.7973 104.293 16.392C103.909 15.9867 103.397 15.784 102.757 15.784C102.085 15.784 101.551 16.0027 101.157 16.44C100.773 16.8773 100.581 17.448 100.581 18.152V23H98.9165V14.568ZM112.33 23.112C111.455 23.112 110.719 22.904 110.122 22.488C109.524 22.072 109.082 21.5333 108.794 20.872C108.506 20.2 108.362 19.4853 108.362 18.728C108.362 17.9707 108.506 17.2613 108.794 16.6C109.082 15.928 109.524 15.384 110.122 14.968C110.73 14.552 111.471 14.344 112.346 14.344C113.498 14.344 114.415 14.7227 115.098 15.48C115.78 16.2267 116.122 17.3147 116.122 18.744V19.208H109.978V19.32C109.978 19.7467 110.074 20.1467 110.266 20.52C110.458 20.8933 110.73 21.1973 111.082 21.432C111.434 21.656 111.839 21.768 112.298 21.768C112.799 21.768 113.231 21.6453 113.594 21.4C113.956 21.144 114.218 20.8027 114.378 20.376H116.01C115.796 21.1653 115.375 21.8213 114.746 22.344C114.116 22.856 113.311 23.112 112.33 23.112ZM114.506 18.072C114.463 17.208 114.244 16.584 113.85 16.2C113.466 15.8053 112.954 15.608 112.314 15.608C111.631 15.608 111.082 15.832 110.666 16.28C110.26 16.728 110.047 17.3253 110.026 18.072H114.506Z" fill="#043B56"/>
</svg>
