<svg width="43" height="32" viewBox="0 0 43 32" fill="none" xmlns="http://www.w3.org/2000/svg">
<path d="M26.3946 22C24.3198 25.5868 20.4417 28 16 28C9.37258 28 4 22.6274 4 16C4 9.37258 9.37258 4 16 4C22.6274 4 28 9.37258 28 16H32C32 7.16344 24.8366 0 16 0C7.16344 0 0 7.16344 0 16C0 24.8366 7.16344 32 16 32C22.7148 32 28.4634 27.8637 30.837 22H26.3946Z" fill="#043B56"/>
<path d="M42.7221 21.1034C39.1267 17.0932 32.0742 19.444 28.7554 19.7206C23.7772 19.9971 21.1498 18.6143 19.3521 17.9229C20.3189 19.4623 22.8092 22.5751 26.9577 23.316C30.8296 24.0074 36.9141 20.5503 42.7221 21.1034Z" fill="#3AB75D"/>
<path d="M17.2778 13.4978C20.0435 14.7424 20.8732 15.4338 25.0217 15.4338C27.7909 15.4338 34.1485 13.7744 36.9141 17.0932C29.9999 16.4018 29.5851 17.9229 25.4366 17.9229C20.3201 17.7846 18.5224 15.0189 17.2778 13.4978Z" fill="#3AB75D"/>
</svg>
